# xmcd
#
# Track frame offsets:
# 150
# 16353
# 33621
# 47952
# 67158
# 84833
# 101652
# 118722
# 133915
# 148716
# 162954
# 172658
#
# Disc length: 2562 seconds
#
#
# Revision: 0
# Processed by: cddbd v1.4PL0 Copyright (c) Steve Scherf et al.
# Submitted via: FreeRIP 2.30 
#
DISCID=a50a000c
DTITLE=Rob McNelley - On
DYEAR=2003
DGENRE=Blues
TTITLE0=C'Mon, C'Mon
TTITLE1=Angelina
TTITLE2=Alright, Alnite
TTITLE3=Like A Feather
TTITLE4=Think Its Gonna Be Alrite
TTITLE5=Bring It Back
TTITLE6=The Circle
TTITLE7=Walk Away From You
TTITLE8=What Could Be Someday
TTITLE9=Love Is Gonna Find You
TTITLE10=3 Shakes
TTITLE11=Love Is So Much More
EXTD=
EXTT0=
EXTT1=
EXTT2=
EXTT3=
EXTT4=
EXTT5=
EXTT6=
EXTT7=
EXTT8=
EXTT9=
EXTT10=
EXTT11=
PLAYORDER=
